<svg xmlns="http://www.w3.org/2000/svg" viewBox="0 0 128 128" role="img" aria-labelledby="title">
  <title id="title">Korcula Island Events logo</title>
  <defs>
    <linearGradient id="blue" x1="18" y1="0" x2="112" y2="126" gradientUnits="userSpaceOnUse">
      <stop stop-color="#003f7d"/>
      <stop offset="1" stop-color="#071f3a"/>
    </linearGradient>
    <linearGradient id="gold" x1="80" y1="78" x2="118" y2="118" gradientUnits="userSpaceOnUse">
      <stop stop-color="#ffd45c"/>
      <stop offset="1" stop-color="#d9a51f"/>
    </linearGradient>
  </defs>
  <rect width="128" height="128" rx="28" fill="url(#blue)"/>
  <path d="M23 95c15-9 31-13 48-10 16 2 27 10 42 4v12c-14 7-29 5-44 2-17-3-31 0-46 9V95z" fill="#2aa7b8"/>
  <path d="M23 83c17-8 33-11 50-7 15 3 26 9 42 2v10c-15 7-29 5-44 2-17-4-32-1-48 8V83z" fill="#ffffff"/>
  <path d="M39 42h10V29h9v13h12V29h9v13h10v43H39V42z" fill="#f8f8f2"/>
  <path d="M34 59h60v29H34V59z" fill="#f8f8f2"/>
  <path d="M53 88V70a11 11 0 0 1 22 0v18H53z" fill="#003f7d"/>
  <path d="M39 48h50M43 59h42M43 68h42M43 77h42M55 42v43M73 42v43" stroke="#d8dee3" stroke-width="2" opacity=".85"/>
  <path d="M96 77h22a6 6 0 0 1 6 6v29a6 6 0 0 1-6 6H96a6 6 0 0 1-6-6V83a6 6 0 0 1 6-6z" fill="url(#gold)"/>
  <rect x="96" y="88" width="22" height="23" rx="3" fill="#fff8de"/>
  <path d="M101 95h5v5h-5zm8 0h5v5h-5zm-8 8h5v5h-5zm8 0h5v5h-5z" fill="#003f7d"/>
  <path d="M101 72v12M114 72v12" stroke="#fff8de" stroke-width="5" stroke-linecap="round"/>
  <path d="M25 35l4 8 8 4-8 4-4 8-4-8-8-4 8-4 4-8z" fill="#f7c948"/>
</svg>
